<svg width="486" height="249" xmlns="http://www.w3.org/2000/svg">
  <g fill="none" fill-rule="evenodd">
    <path d="M61.8 190.208h14.04c10.608 0 20.072-1.664 28.392-4.992 8.32-3.328 15.34-7.904 21.06-13.728 5.72-5.824 10.088-12.74 13.104-20.748 3.016-8.008 4.524-16.796 4.524-26.364 0-9.36-1.56-18.096-4.68-26.208-3.12-8.112-7.54-15.08-13.26-20.904s-12.74-10.4-21.06-13.728c-8.32-3.328-17.68-4.992-28.08-4.992H61.8v131.664zM.648 6.752h90.48c16.016 0 31.044 3.224 45.084 9.672 14.04 6.448 26.312 15.028 36.816 25.74 10.504 10.712 18.772 23.192 24.804 37.44 6.032 14.248 9.048 29.172 9.048 44.772 0 15.392-2.964 30.212-8.892 44.46-5.928 14.248-14.144 26.78-24.648 37.596-10.504 10.816-22.776 19.448-36.816 25.896-14.04 6.448-29.172 9.672-45.396 9.672H.648V6.752zm450.818 60.216c-6.656-5.408-13.312-9.412-19.968-12.012-6.656-2.6-13.104-3.9-19.344-3.9-7.904 0-14.352 1.872-19.344 5.616-4.992 3.744-7.488 8.632-7.488 14.664 0 4.16 1.248 7.592 3.744 10.296 2.496 2.704 5.772 5.044 9.828 7.02 4.056 1.976 8.632 3.692 13.728 5.148a364.518 364.518 0 0 1 15.132 4.68c19.968 6.656 34.58 15.548 43.836 26.676 9.256 11.128 13.884 25.636 13.884 43.524 0 12.064-2.028 22.984-6.084 32.76-4.056 9.776-9.984 18.148-17.784 25.116-7.8 6.968-17.368 12.376-28.704 16.224-11.336 3.848-24.18 5.772-38.532 5.772-29.744 0-57.304-8.84-82.68-26.52l26.208-49.296c9.152 8.112 18.2 14.144 27.144 18.096 8.944 3.952 17.784 5.928 26.52 5.928 9.984 0 17.42-2.288 22.308-6.864 4.888-4.576 7.332-9.776 7.332-15.6 0-3.536-.624-6.604-1.872-9.204-1.248-2.6-3.328-4.992-6.24-7.176-2.912-2.184-6.708-4.212-11.388-6.084-4.68-1.872-10.348-3.952-17.004-6.24a341.374 341.374 0 0 1-23.244-8.268c-7.592-3.016-14.352-7.02-20.28-12.012-5.928-4.992-10.712-11.284-14.352-18.876-3.64-7.592-5.46-17.212-5.46-28.86s1.924-22.204 5.772-31.668c3.848-9.464 9.256-17.576 16.224-24.336 6.968-6.76 15.496-12.012 25.584-15.756C379.03 2.072 390.314.2 402.794.2c11.648 0 23.816 1.612 36.504 4.836 12.688 3.224 24.856 7.956 36.504 14.196l-24.336 47.736z" fill="#000"/>
    <path d="M229.25 124.376c0-4.992.935-9.724 2.807-14.196 1.872-4.472 4.42-8.372 7.644-11.7 3.224-3.328 7.072-5.928 11.544-7.8 4.472-1.872 9.204-2.808 14.196-2.808 4.992 0 9.724.936 14.196 2.808 4.472 1.872 8.372 4.472 11.7 7.8 3.328 3.328 5.928 7.228 7.8 11.7 1.872 4.472 2.808 9.204 2.808 14.196 0 4.992-.936 9.724-2.808 14.196-1.872 4.472-4.472 8.32-7.8 11.544-3.328 3.224-7.228 5.772-11.7 7.644-4.472 1.872-9.204 2.808-14.196 2.808-4.992 0-9.724-.936-14.196-2.808-4.472-1.872-8.32-4.42-11.544-7.644s-5.772-7.072-7.644-11.544c-1.872-4.472-2.808-9.204-2.808-14.196z" fill="#D8D8D8" fill-rule="nonzero"/>
  </g>
</svg>
