<?xml version="1.0" encoding="UTF-8"?>
<svg width="486px" height="249px" viewBox="0 0 486 249" version="1.1" xmlns="http://www.w3.org/2000/svg" xmlns:xlink="http://www.w3.org/1999/xlink">
    <!-- Generator: Sketch 51.2 (57519) - http://www.bohemiancoding.com/sketch -->
    <title>Group</title>
    <desc>Created with Sketch.</desc>
    <defs></defs>
    <g id="Page-1" stroke="none" stroke-width="1" fill="none" fill-rule="evenodd">
        <g id="Custom-Preset" transform="translate(-14.000000, -120.000000)" fill="#FFFFFF">
            <g id="Group" transform="translate(14.000000, 120.000000)">
                <path d="M61.8,190.208 L75.84,190.208 C86.448053,190.208 95.9119584,188.544017 104.232,185.216 C112.552042,181.887983 119.571971,177.312029 125.292,171.488 C131.012029,165.663971 135.379985,158.74804 138.396,150.74 C141.412015,142.73196 142.92,133.944048 142.92,124.376 C142.92,115.015953 141.360016,106.280041 138.24,98.168 C135.119984,90.0559594 130.700029,83.0880291 124.98,77.264 C119.259971,71.4399709 112.240042,66.8640166 103.92,63.536 C95.5999584,60.2079834 86.240052,58.544 75.84,58.544 L61.8,58.544 L61.8,190.208 Z M0.648,6.752 L91.128,6.752 C107.14408,6.752 122.17193,9.97596776 136.212,16.424 C150.25207,22.8720322 162.523947,31.4519464 173.028,42.164 C183.532053,52.8760536 191.79997,65.3559288 197.832,79.604 C203.86403,93.8520712 206.88,108.775922 206.88,124.376 C206.88,139.768077 203.91603,154.587929 197.988,168.836 C192.05997,183.084071 183.844053,195.615946 173.34,206.432 C162.835947,217.248054 150.56407,225.879968 136.524,232.328 C122.48393,238.776032 107.352081,242 91.128,242 L0.648,242 L0.648,6.752 Z M451.466324,66.968 C444.81029,61.559973 438.154357,57.556013 431.498324,54.956 C424.84229,52.355987 418.394355,51.056 412.154324,51.056 C404.250284,51.056 397.802349,52.9279813 392.810324,56.672 C387.818299,60.4160187 385.322324,65.3039698 385.322324,71.336 C385.322324,75.4960208 386.570311,78.9279865 389.066324,81.632 C391.562336,84.3360135 394.838303,86.6759901 398.894324,88.652 C402.950344,90.6280099 407.526298,92.3439927 412.622324,93.8 C417.718349,95.2560073 422.762299,96.8159917 427.754324,98.48 C447.722423,105.136033 462.334277,114.027944 471.590324,125.156 C480.84637,136.284056 485.474324,150.791911 485.474324,168.68 C485.474324,180.74406 483.446344,191.663951 479.390324,201.44 C475.334303,211.216049 469.406363,219.587965 461.606324,226.556 C453.806285,233.524035 444.23838,238.931981 432.902324,242.78 C421.566267,246.628019 408.722395,248.552 394.370324,248.552 C364.626175,248.552 337.06645,239.712088 311.690324,222.032 L337.898324,172.736 C347.050369,180.848041 356.098279,186.87998 365.042324,190.832 C373.986368,194.78402 382.82628,196.76 391.562324,196.76 C401.546374,196.76 408.982299,194.472023 413.870324,189.896 C418.758348,185.319977 421.202324,180.120029 421.202324,174.296 C421.202324,170.759982 420.57833,167.692013 419.330324,165.092 C418.082317,162.491987 416.002338,160.100011 413.090324,157.916 C410.178309,155.731989 406.382347,153.704009 401.702324,151.832 C397.0223,149.959991 391.354357,147.880011 384.698324,145.592 C376.794284,143.095988 369.046362,140.340015 361.454324,137.324 C353.862286,134.307985 347.102353,130.304025 341.174324,125.312 C335.246294,120.319975 330.462342,114.028038 326.822324,106.436 C323.182305,98.843962 321.362324,89.2240582 321.362324,77.576 C321.362324,65.9279418 323.286304,55.3720473 327.134324,45.908 C330.982343,36.4439527 336.390289,28.3320338 343.358324,21.572 C350.326358,14.8119662 358.854273,9.56001872 368.942324,5.816 C379.030374,2.07198128 390.314261,0.2 402.794324,0.2 C414.442382,0.2 426.61026,1.81198388 439.298324,5.036 C451.986387,8.26001612 464.154265,12.9919688 475.802324,19.232 L451.466324,66.968 Z" id="D·S"></path>
                <path d="M228.249162,124.376 C228.249162,119.383975 229.185152,114.652022 231.057162,110.18 C232.929171,105.707978 235.477146,101.808017 238.701162,98.48 C241.925178,95.1519834 245.773139,92.5520094 250.245162,90.68 C254.717184,88.8079906 259.449137,87.872 264.441162,87.872 C269.433187,87.872 274.165139,88.8079906 278.637162,90.68 C283.109184,92.5520094 287.009145,95.1519834 290.337162,98.48 C293.665178,101.808017 296.265152,105.707978 298.137162,110.18 C300.009171,114.652022 300.945162,119.383975 300.945162,124.376 C300.945162,129.368025 300.009171,134.099978 298.137162,138.572 C296.265152,143.044022 293.665178,146.891984 290.337162,150.116 C287.009145,153.340016 283.109184,155.887991 278.637162,157.76 C274.165139,159.632009 269.433187,160.568 264.441162,160.568 C259.449137,160.568 254.717184,159.632009 250.245162,157.76 C245.773139,155.887991 241.925178,153.340016 238.701162,150.116 C235.477146,146.891984 232.929171,143.044022 231.057162,138.572 C229.185152,134.099978 228.249162,129.368025 228.249162,124.376 Z" id="Path" fill-opacity="0.500566123" fill-rule="nonzero"></path>
            </g>
        </g>
    </g>
</svg>